<?xml version="1.0" encoding="UTF-8" standalone="no"?>
<svg
   xmlns:dc="http://purl.org/dc/elements/1.1/"
   xmlns:cc="http://creativecommons.org/ns#"
   xmlns:rdf="http://www.w3.org/1999/02/22-rdf-syntax-ns#"
   xmlns:svg="http://www.w3.org/2000/svg"
   xmlns="http://www.w3.org/2000/svg"
   xmlns:sodipodi="http://sodipodi.sourceforge.net/DTD/sodipodi-0.dtd"
   xmlns:inkscape="http://www.inkscape.org/namespaces/inkscape"
   xmlns:xlink="http://www.w3.org/1999/xlink"
   version="1.1"
   id="Calque_1"
   x="0px"
   y="0px"
   width="13.246511627906976"
   height="16"
   viewBox="0 0 712 860"
   enable-background="new 0 0 712 860"
   xml:space="preserve"
   inkscape:version="0.91 r13725"
   sodipodi:docname="Tux Mono.svg"
   inkscape:export-filename="./Tux Mono.png"
   inkscape:export-xdpi="90"
   inkscape:export-ydpi="90">
  <metadata id="metadata23">
    <rdf:RDF>
      <cc:Work rdf:about="">
        <dc:format>image/svg+xml</dc:format>
        <dc:type rdf:resource="http://purl.org/dc/dcmitype/StillImage"/>
        <dc:title/>
      </cc:Work>
    </rdf:RDF>
  </metadata>
  <defs id="defs21">
    <!-- original defs unchanged -->
    <inkscape:path-effect is_visible="true" id="path-effect29672-0" effect="spiro"/>
    <inkscape:path-effect is_visible="true" id="path-effect29678-1" effect="spiro"/>
    <inkscape:path-effect is_visible="true" id="path-effect29678-4-6" effect="spiro"/>
    <inkscape:path-effect is_visible="true" id="path-effect28714-5" effect="spiro"/>
    <inkscape:path-effect is_visible="true" id="path-effect29721-2" effect="spiro"/>
    <inkscape:path-effect is_visible="true" id="path-effect28463-8-0" effect="spiro"/>
    <inkscape:path-effect is_visible="true" id="path-effect28463-0-7" effect="spiro"/>
    <linearGradient id="linearGradient28799-5-5">
      <stop id="stop28801-1-9" offset="0" style="stop-color:#fefefc;stop-opacity:1;"/>
      <stop style="stop-color:#fefefc;stop-opacity:1" offset="0.75733864" id="stop28807-2-6"/>
      <stop id="stop28803-6-3" offset="1" style="stop-color:#d4d4d4;stop-opacity:1"/>
    </linearGradient>
    <inkscape:path-effect is_visible="true" id="path-effect28797-8-1" effect="spiro"/>
    <inkscape:path-effect is_visible="true" id="path-effect28797-81" effect="spiro"/>
    <inkscape:path-effect is_visible="true" id="path-effect28273-4-2" effect="spiro"/>
    <linearGradient id="linearGradient28853-5">
      <stop id="stop28855-3" offset="0" style="stop-color:#020204;stop-opacity:1"/>
      <stop style="stop-color:#020204;stop-opacity:1" offset="0.73448181" id="stop28865-0"/>
      <stop id="stop28857-9" offset="1" style="stop-color:#5c5c5c;stop-opacity:1;"/>
    </linearGradient>
    <inkscape:path-effect is_visible="true" id="path-effect28851-0" effect="spiro"/>
    <inkscape:path-effect is_visible="true" id="path-effect28881-6" effect="spiro"/>
    <linearGradient id="linearGradient28935-8">
      <stop id="stop28937-7" offset="0" style="stop-color:#949494;stop-opacity:0.39215687;"/>
      <stop style="stop-color:#949494;stop-opacity:1;" offset="0.5" id="stop28943-3"/>
      <stop id="stop28939-8" offset="1" style="stop-color:#949494;stop-opacity:0.39215687;"/>
    </linearGradient>
    <linearGradient id="linearGradient28976-3">
      <stop id="stop28978-7" offset="0" style="stop-color:#747474;stop-opacity:1"/>
      <stop style="stop-color:#8c8c8c;stop-opacity:1;" offset="0.125" id="stop29259-5"/>
      <stop style="stop-color:#a4a4a4;stop-opacity:1;" offset="0.25" id="stop29257-0"/>
      <stop style="stop-color:#d4d4d4;stop-opacity:1" offset="0.5" id="stop28984-4"/>
      <stop id="stop28986-0" offset="0.61919296" style="stop-color:#d4d4d4;stop-opacity:1"/>
      <stop id="stop28980-2" offset="1" style="stop-color:#7c7c7c;stop-opacity:1"/>
    </linearGradient>
    <inkscape:path-effect is_visible="true" id="path-effect28974-8" effect="spiro"/>
    <clipPath id="clipPath29028-5" clipPathUnits="userSpaceOnUse">
      <path sodipodi:nodetypes="aaaaaaaa" inkscape:connector-curvature="0" inkscape:original-d="m 85.75,122.36218 c -2.54738,2.12715 -5.20812,4.59907 -6.25,7.75 -1.30914,3.95917 -1.63336,8.91703 0.5,12.5 3.91901,6.58194 12.38353,13.85135 19.75,11.75 4.87452,-1.3905 6.10748,-8.51023 7,-13.5 0.59149,-3.30679 0.59578,-7.19325 -1.25,-10 -3.61233,-5.49303 -10.4265,-9.89357 -17,-10 -1.04403,-0.0169 -1.94852,0.83074 -2.75,1.5 z" id="path29030-7" d="m 85.75,122.36218 c -2.780425,1.91023 -5.110569,4.57487 -6.25,7.75 -1.436029,4.00163 -0.885838,8.48071 0.5,12.5 1.419488,4.11688 3.793788,8.04098 7.37932,10.51234 1.792766,1.23567 3.868091,2.08301 6.030402,2.33859 2.162311,0.25558 4.409274,-0.0949 6.340278,-1.10093 2.35312,-1.22596 4.14782,-3.37278 5.26217,-5.78076 1.11436,-2.40798 1.5888,-5.0701 1.73783,-7.71924 0.18989,-3.37546 -0.14047,-6.80646 -1.25,-10 -1.20527,-3.46909 -3.39005,-6.67055 -6.472754,-8.6666 -1.541351,-0.99803 -3.291947,-1.68356 -5.110883,-1.93515 -1.818936,-0.25158 -3.704766,-0.0633 -5.416363,0.60175 -0.975471,0.37901 -1.887438,0.9074 -2.75,1.5" style="fill:url(#radialGradient29032);fill-opacity:1;stroke:none"/>
    </clipPath>
    <linearGradient id="linearGradient29336-6">
      <stop id="stop29338-1" offset="0" style="stop-color:#646464;stop-opacity:0"/>
      <stop style="stop-color:#646464;stop-opacity:0.5825243" offset="0.30628255" id="stop29344-7"/>
      <stop id="stop29354-5" offset="0.47000006" style="stop-color:#646464;stop-opacity:1"/>
      <stop style="stop-color:#646464;stop-opacity:0.25728154" offset="0.72834015" id="stop29356-3"/>
      <stop id="stop29340-6" offset="1" style="stop-color:#646464;stop-opacity:0;"/>
    </linearGradient>
    <inkscape:path-effect is_visible="true" id="path-effect29455-3" effect="spiro"/>
    <linearGradient id="linearGradient29477-3">
      <stop id="stop29479-5" offset="0" style="stop-color:#757574;stop-opacity:0"/>
      <stop style="stop-color:#757574;stop-opacity:1;" offset="0.26291031" id="stop29487-5"/>
      <stop style="stop-color:#757574;stop-opacity:1;" offset="0.5" id="stop29485-0"/>
      <stop id="stop29481-3" offset="1" style="stop-color:#757574;stop-opacity:0"/>
    </linearGradient>
    <linearGradient id="linearGradient28469-0">
      <stop style="stop-color:#d2940a;stop-opacity:1" offset="0" id="stop28479-4"/>
      <stop style="stop-color:#d89c08;stop-opacity:1" offset="0.75143719" id="stop28477-2"/>
      <stop id="stop28485-7" offset="0.86579126" style="stop-color:#b67e07;stop-opacity:1;"/>
      <stop id="stop28473-1" offset="1" style="stop-color:#946106;stop-opacity:1"/>
    </linearGradient>
    <inkscape:path-effect is_visible="true" id="path-effect28463-4" effect="spiro"/>
    <inkscape:path-effect is_visible="true" id="path-effect28489-4" effect="spiro"/>
    <inkscape:path-effect is_visible="true" id="path-effect28273-54-7" effect="spiro"/>
    <linearGradient id="linearGradient28275-8">
      <stop id="stop28277-1" offset="0" style="stop-color:#ad780a;stop-opacity:1"/>
      <stop style="stop-color:#d89e08;stop-opacity:1" offset="0.11972899" id="stop28291-9"/>
      <stop style="stop-color:#edb80b;stop-opacity:1" offset="0.25514477" id="stop28289-6"/>
      <stop style="stop-color:#ebc80d;stop-opacity:1" offset="0.39194193" id="stop28287-6"/>
      <stop style="stop-color:#f5d838;stop-opacity:1" offset="0.52741116" id="stop28285-7"/>
      <stop style="stop-color:#f6d811;stop-opacity:1" offset="0.76906693" id="stop28283-7"/>
      <stop id="stop28279-5" offset="1" style="stop-color:#f5cd31;stop-opacity:1"/>
    </linearGradient>
    <inkscape:path-effect is_visible="true" id="path-effect28273-44" effect="spiro"/>
    <inkscape:path-effect is_visible="true" id="path-effect28384-7" effect="spiro"/>
    <linearGradient id="linearGradient29529-6">
      <stop id="stop29531-0" offset="0" style="stop-color:#3a2903;stop-opacity:1;"/>
      <stop style="stop-color:#735208;stop-opacity:1" offset="0.55472803" id="stop29539-7"/>
      <stop id="stop29533-8" offset="1" style="stop-color:#ac8c04;stop-opacity:1"/>
    </linearGradient>
    <inkscape:path-effect is_visible="true" id="path-effect29553-7" effect="spiro"/>
    <clipPath id="clipPath29644-8" clipPathUnits="userSpaceOnUse">
      <path sodipodi:nodetypes="zzzzzzz" inkscape:connector-curvature="0" inkscape:original-d="m 54.232441,122.36218 c -3.79199,4.78949 -8.5176,11.69104 -8.19273,17.25 0.32487,5.55896 3.86025,13.93486 8.37542,16 4.51517,2.06514 5.75436,0.0125 8.32902,-2.5 2.57466,-2.51247 3.85871,-7.34762 4.00585,-12.25 0.14713,-4.90238 -3.03534,-11.91949 -5.43855,-15.25 -2.40321,-3.33051 -3.28702,-8.03949 -7.07901,-3.25 z" id="path29646-8" d="m 54.232441,122.36218 c -1.780966,0.097 -3.484616,0.91899 -4.787851,2.1367 -1.303235,1.21771 -2.221372,2.81176 -2.786181,4.50357 -1.129618,3.38363 -0.875481,7.05177 -0.618698,10.60973 0.23251,3.22162 0.470404,6.50533 1.676785,9.50158 0.60319,1.49813 1.450247,2.91021 2.580338,4.06395 1.130092,1.15374 2.551736,2.04189 4.118297,2.43447 1.468838,0.36809 3.038161,0.29183 4.482784,-0.16209 1.444623,-0.45391 2.763917,-1.27887 3.846236,-2.33791 1.57904,-1.54507 2.643262,-3.5662 3.253449,-5.68947 0.610186,-2.12328 0.784157,-4.35155 0.752401,-6.56053 -0.03974,-2.76435 -0.400909,-5.53851 -1.265755,-8.16439 -0.864846,-2.62588 -2.245742,-5.10327 -4.172795,-7.08561 -0.933308,-0.96009 -1.997766,-1.80513 -3.198586,-2.39747 -1.200819,-0.59233 -2.54344,-0.92535 -3.880424,-0.85253" style="fill:url(#radialGradient29648);fill-opacity:1;stroke:none"/>
    </clipPath>

    <!-- *** ADDED: strong soft white outer glow filter (outputs only the glow) *** -->
    <filter id="outerGlow" x="-30%" y="-30%" width="160%" height="160%" color-interpolation-filters="sRGB">
      <feMorphology in="SourceAlpha" operator="dilate" radius="18" result="spread"/>
      <feGaussianBlur in="spread" stdDeviation="30" result="blur"/>
      <feFlood flood-color="#ffffff" flood-opacity="1" result="flood"/>
      <feComposite in="flood" in2="blur" operator="in" result="glow"/>
      <!-- output just the glow; the unfiltered original will render above -->
      <feMerge>
        <feMergeNode in="glow"/>
      </feMerge>
    </filter>
  </defs>

  <sodipodi:namedview
     pagecolor="#ffffff"
     bordercolor="#666666"
     borderopacity="1"
     objecttolerance="10"
     gridtolerance="10"
     guidetolerance="10"
     inkscape:pageopacity="0"
     inkscape:pageshadow="2"
     inkscape:window-width="1341"
     inkscape:window-height="1061"
     id="namedview19"
     showgrid="false"
     inkscape:zoom="0.25"
     inkscape:cx="730.76384"
     inkscape:cy="436.78527"
     inkscape:window-x="0"
     inkscape:window-y="0"
     inkscape:window-maximized="0"
     inkscape:current-layer="Calque_1" />

  <!-- *** ADDED: render a filtered clone behind the penguin to create the glow *** -->
  <use xlink:href="#penguin" filter="url(#outerGlow)"/>

  <!-- Original art wrapped unchanged -->
  <g id="penguin">
    <path d="M683.91,677.74c-0.01-0.01-0.021-0.021-0.021-0.03c-6.069-6.85-8.96-19.55-12.069-33.08c-3.101-13.52-6.57-28.1-17.67-37.55  c-0.021-0.021-0.051-0.04-0.07-0.061c-2.2-1.92-4.46-3.539-6.73-4.89c-2.279-1.35-4.59-2.45-6.899-3.32  c15.43-45.76,9.38-91.329-6.2-132.5c-19.11-50.54-52.48-94.569-77.97-124.689c-28.53-35.99-56.431-70.15-55.88-120.61  C501.25,144,508.87,1.19,373.35,1c-5.51-0.01-11.26,0.22-17.25,0.7C204.66,13.89,244.83,173.89,242.58,227.46  c-2.77,39.18-10.71,70.06-37.66,108.36c-31.65,37.64-76.23,98.57-97.34,162c-9.96,29.93-14.7,60.439-10.33,89.319  c-1.37,1.23-2.67,2.521-3.92,3.841c-9.29,9.93-16.16,21.949-23.81,30.039c-7.15,7.141-17.33,9.851-28.53,13.86  c-11.2,4.021-23.49,9.94-30.95,24.26c0,0,0,0.011-0.01,0.011c-0.01,0.02-0.02,0.05-0.04,0.069c-3.51,6.55-4.65,13.62-4.65,20.79  c0,6.63,0.98,13.351,1.97,19.82c2.06,13.46,4.15,26.189,1.38,34.81c-8.86,24.23-10,40.98-3.76,53.141  c6.26,12.18,19.11,17.55,33.64,20.59c29.06,6.06,68.41,4.56,99.42,21l2.67-5.03l-2.64,5.04c33.2,17.36,66.86,23.521,93.71,17.39  c19.48-4.439,35.28-16.039,43.4-33.88c21-0.1,44.05-9,80.97-11.029c25.05-2.021,56.34,8.899,92.33,6.899  c0.94,3.9,2.301,7.66,4.16,11.23c0.021,0.029,0.04,0.069,0.061,0.1c13.949,27.9,39.869,40.66,67.5,38.48  c27.659-2.181,57.069-18.49,80.85-46.78l-4.36-3.66l4.391,3.62c22.66-27.48,60.27-38.87,85.22-53.91  c12.47-7.52,22.58-16.939,23.37-30.62C710.4,713.55,702.37,698.23,683.91,677.74z"
     id="path3" style="fill:#202020;fill-opacity:1" fill="#000000"/>
    <path fill="#D6A312" d="M698.24,726.57c-0.48,8.439-6.59,14.71-17.88,21.51c-22.561,13.61-62.551,25.45-88.08,56.38  c-22.181,26.39-49.221,40.88-73.03,42.76s-44.35-8-56.47-32.31l-0.021-0.05l-0.029-0.061c-7.521-14.3-4.391-36.85,1.939-60.649  c6.33-23.79,15.43-48.23,16.65-68.08v-0.061c1.279-25.439,2.71-47.66,6.979-64.81c4.28-17.15,11.01-28.75,22.931-35.28  c0.56-0.3,1.109-0.59,1.659-0.86c1.351,22.03,12.261,44.511,31.54,49.37c21.101,5.561,51.511-12.54,64.351-27.31  c2.569-0.101,5.069-0.23,7.5-0.29c11.27-0.271,20.71,0.38,30.37,8.82l0.029,0.029l0.03,0.021c7.42,6.29,10.95,18.17,14.01,31.47  c3.061,13.311,5.5,27.8,14.681,38.13l0.01,0.01l0.01,0.021C693.06,704.9,698.73,718.12,698.24,726.57z" id="path5" style="fill:#ffffff;fill-opacity:1"/>
    <path d="M269.49,788.95l-0.01,0.06v0.07c-2.04,26.74-17.12,41.3-40.28,46.59c-23.14,5.29-54.53,0.021-85.87-16.37  c-0.01,0-0.02-0.01-0.03-0.01c-34.68-18.37-75.93-16.54-102.4-22.07c-13.23-2.76-21.87-6.92-25.83-14.64  c-3.96-7.73-4.05-21.2,4.37-44.17l0.04-0.101l0.03-0.1c4.17-12.85,1.08-26.91-0.94-40.11c-2.02-13.189-3.01-25.199,1.5-33.56  l0.04-0.08c5.77-11.12,14.23-15.1,24.73-18.86c10.51-3.77,22.96-6.729,32.79-16.59l0.06-0.05l0.05-0.05  c9.09-9.59,15.92-21.62,23.91-30.15c6.74-7.2,13.49-11.97,23.66-12.04c0.12,0.011,0.23,0.011,0.35,0  c1.78,0.011,3.67,0.16,5.67,0.471c13.5,2.04,25.27,11.479,36.61,26.859l32.74,59.67l0.01,0.03l0.02,0.02  c8.71,18.19,27.11,38.2,42.7,58.61C259,752.78,271.06,773.27,269.49,788.95z"
     id="path7" style="fill:#ffffff;fill-opacity:1" fill="#D6A312"/>
    <path d="M432.77,232.69c-2.63-5.15-8-10.05-17.14-13.8l-0.02-0.01l-0.03-0.01c-19.01-8.14-27.26-8.72-37.87-15.62  c-17.27-11.1-31.54-14.99-43.4-14.94c-6.21,0.02-11.76,1.12-16.73,2.84c-14.45,4.97-24.04,15.34-30.05,21.03l-0.01,0.01  c0,0.01-0.01,0.01-0.01,0.02c-1.18,1.12-2.7,2.14-6.38,4.84c-3.71,2.71-9.27,6.79-17.27,12.79c-7.11,5.33-9.42,12.27-6.96,20.4  c2.45,8.13,10.29,17.51,24.63,25.62l0.02,0.02l0.03,0.01c8.9,5.23,14.98,12.28,21.96,17.89c3.49,2.8,7.16,5.3,11.58,7.19  c4.42,1.89,9.58,3.17,16.04,3.55c15.16,0.88,26.32-3.67,36.17-9.31c9.87-5.63,18.229-12.52,27.82-15.63l0.02-0.01l0.021-0.01  c19.659-6.14,33.68-18.51,38.069-30.26C435.46,243.42,435.39,237.84,432.77,232.69z"
     id="path9" style="fill:#ffffff;fill-opacity:1" fill="#D6A312"/>
    <path d="m 382.89,261.71 c -15.64075,8.1527 -33.91,18.04 -53.35,18.04 -19.43,0 -34.78,-8.98 -45.82,-17.73 -5.52,-4.37 -10,-8.72 -13.38,-11.88 -5.86434,-4.62903 -5.16188,-11.12168 -2.75246,-10.93 4.03863,0.50418 4.64927,5.82168 7.19246,8.2 3.44,3.22 7.75,7.39 12.97,11.53 10.44,8.27 24.36,16.32 41.79,16.32 17.4,0 37.71174,-10.21517 50.11,-17.17 7.02421,-3.94024 15.96224,-11.0031 23.25658,-16.35742 5.58072,-4.09647 5.37722,-9.02921 9.98509,-8.49216 4.60786,0.53705 1.19917,5.45984 -5.25377,11.09153 -6.45295,5.63169 -16.54818,13.10397 -24.7479,17.37805 z"
     id="path11" inkscape:connector-curvature="0" style="fill:#202020;fill-opacity:1" sodipodi:nodetypes="sscccccssszzs"/>
    <path d="M622.39,595.47c-2.17-0.08-4.31-0.069-6.39-0.02c-0.19,0.01-0.38,0.01-0.58,0.01  c5.37-16.96-6.51-29.47-38.17-43.79c-32.83-14.439-58.99-13.01-63.41,16.29c-0.28,1.53-0.51,3.1-0.68,4.68  c-2.46,0.86-4.92,1.94-7.4,3.29c-15.41,8.44-23.83,23.74-28.51,42.521c-4.67,18.76-6.02,41.43-7.3,66.92c0,0.01,0,0.01,0,0.02  c-0.79,12.811-6.07,30.15-11.41,48.511c-53.78,38.369-128.42,54.989-191.8,11.729c-4.29-6.79-9.22-13.52-14.29-20.16  c-3.24-4.239-6.57-8.45-9.87-12.609c6.5,0.01,12.03-1.061,16.5-3.08c5.56-2.53,9.46-6.57,11.4-11.771  c3.86-10.39-0.02-25.05-12.39-41.8c-12.37-16.74-33.32-35.63-64.1-54.51c0,0,0,0,0-0.01c-22.62-14.07-35.26-31.311-41.18-50.03  c-5.93-18.73-5.1-38.98-0.53-58.97c8.76-38.37,31.26-75.69,45.62-99.11c3.86-2.84,1.38,5.28-14.54,34.84  c-14.26,27.021-40.93,89.38-4.42,138.061c0.98-34.641,9.25-69.971,23.14-103.021c20.23-45.85,62.54-125.38,65.9-188.76  c1.74,1.26,7.69,5.28,10.34,6.79c0.01,0.01,0.01,0.01,0.02,0.01c7.76,4.57,13.59,11.25,21.14,17.32  c7.57,6.08,17.02,11.33,31.3,12.16c1.37,0.08,2.71,0.12,4.02,0.12c14.72,0,26.2-4.8,35.76-10.27  c10.391-5.94,18.69-12.52,26.561-15.08c0.01-0.01,0.02-0.01,0.03-0.01c16.63-5.2,29.84-14.4,37.359-25.12  c12.92,50.92,42.96,124.47,62.271,160.36c10.27,19.04,30.689,59.5,39.51,108.25c5.59-0.171,11.75,0.64,18.34,2.329  c23.07-59.81-19.56-124.22-39.06-142.16c-7.87-7.64-8.25-11.06-4.34-10.9c21.14,18.71,48.909,56.32,59.01,98.78  c4.609,19.359,5.59,39.72,0.649,59.81c2.41,1,4.87,2.09,7.36,3.271C615.28,558.39,628.97,574.07,622.39,595.47z"
     id="path13" fill="#FFFFFF"/>
    <path d="m 434.51,174.03 c 0.08,10.09 -1.66,18.68 -5.49,27.45 -2.18,5 -4.689,9.2 -7.699,12.84 -1.021,-0.49 -2.08,-0.96 -3.181,-1.41 -3.81,-1.63 -7.18,-2.97 -10.199,-4.11 -3.021,-1.14 -5.37791,-1.91895 -7.80891,-2.75895 1.761,-2.13 5.23,-4.64 6.521,-7.79 1.96,-4.75 2.92,-9.39 3.1,-14.92 0,-0.22 0.07,-0.41 0.07,-0.67 0.11,-5.3 -0.59,-9.83 -2.14,-14.47 -1.62,-4.87 -3.681,-8.37 -6.66,-11.28 -2.99,-2.91 -5.97,-4.23 -9.55,-4.35 -0.17,-0.01 -0.33,-0.01 -0.5,-0.01 -3.36,0.01 -6.28,1.17 -9.301,3.69 -3.17,2.65 -5.52,6.04 -7.479,10.76 -1.95,4.72 -2.91,9.4 -3.101,14.96 -0.029,0.22 -0.029,0.41 -0.029,0.63 -0.07,3.06 0.13,5.86 0.6,8.58 -6.88,-3.43 -15.68209,-5.93105 -21.76209,-7.38105 -0.35,-2.63 -0.55,-5.34 -0.61,-8.18 l 0,-0.77 c -0.11,-10.06 1.54,-18.69 5.41,-27.45 3.87,-8.77 8.66,-15.07 15.399,-20.2 6.75,-5.12 13.381,-7.47 21.23,-7.55 l 0.37,0 c 7.68,0 14.25,2.26 21,7.15 6.85,4.98 11.79,11.2 15.77,19.9 3.9,8.48 5.78,16.77 5.971,26.6 -10e-4,0.26 -10e-4,0.48 0.069,0.74 z"
     id="path15" inkscape:connector-curvature="0" style="fill:#ffffff" sodipodi:nodetypes="ccccccccccccccccccccccccscccc"/>
    <path d="m 318.43,184.08 c -1.01,0.29 -1.99,0.6 -2.96,0.93 -5.5,1.9 -9.86686,3.99686 -14.08686,6.78686 0.41,-2.92 0.47,-5.88 0.15,-9.19 -0.03,-0.18 -0.03,-0.33 -0.03,-0.51 -0.44,-4.39 -1.37,-8.07 -2.92,-11.79 -1.65,-3.87 -3.5,-6.6 -5.93,-8.7 -2.2,-1.9 -4.28,-2.78 -6.58,-2.76 -0.23,0 -0.47,0.01 -0.71,0.03 -2.58,0.22 -4.72,1.48 -6.75,3.95 -2.02,2.46 -3.35,5.52 -4.31,9.58 -0.96,4.05 -1.21,8.03 -0.81,12.6 0,0.18 0.04,0.33 0.04,0.51 0.44,4.43 1.33,8.11 2.91,11.83 1.62,3.83 3.5,6.56 5.93,8.66 0.41,0.35 0.81,0.67 1.21,0.95 -2.52,1.95 -4.21314,3.33314 -6.29314,4.85314 -1.33,0.97 -2.91,2.13 -4.75,3.49 -4.01,-3.76 -7.14,-8.48 -9.88,-14.71 -3.24,-7.36 -4.97,-14.73 -5.49,-23.43 l 0,-0.07 c -0.48,-8.7 0.37,-16.18 2.76,-23.92 2.4,-7.74 5.6,-13.34 10.25,-17.94 4.64,-4.61 9.32,-6.93 14.96,-7.22 0.44,-0.02 0.87,-0.03 1.3,-0.03 5.11,0.01 9.67,1.71 14.39,5.48 5.12,4.09 8.99,9.32 12.23,16.69 3.25,7.37 4.98,14.74 5.46,23.44 l 0,0.07 c 0.23,3.65 0.2,7.09 -0.09,10.42 z"
     id="path17" inkscape:connector-curvature="0" style="fill:#ffffff" sodipodi:nodetypes="cccccccccccccccccccccccccccccc"/>
    <path sodipodi:nodetypes="aaaaaaa" inkscape:connector-curvature="0" id="path28396-7" d="m 344.08661,204.88969 c 0.64684,2.07624 3.99301,1.73211 5.92629,2.72792 1.69642,0.87378 3.06086,2.78891 4.96829,2.84398 1.82043,0.0526 4.65359,-0.63043 4.89041,-2.43615 0.31286,-2.38563 -3.17083,-3.90165 -5.41255,-4.77563 -2.88469,-1.12471 -6.58056,-1.69534 -9.28659,-0.19073 -0.6201,0.34477 -1.29689,1.15328 -1.08585,1.83064 z" style="opacity:1;fill:#202020;fill-opacity:1;stroke:none"/>
    <path style="opacity:1;fill:#202020;fill-opacity:1;stroke:none" d="m 324.32226,204.88969 c -0.64684,2.07624 -3.99301,1.73211 -5.92629,2.72792 -1.69642,0.87378 -3.06086,2.78891 -4.96829,2.84398 -1.82043,0.0526 -4.65359,-0.63043 -4.89041,-2.43615 -0.31286,-2.38563 3.17083,-3.90165 5.41255,-4.77563 2.88469,-1.12471 6.58056,-1.69534 9.28659,-0.19073 0.6201,0.34477 1.29689,1.15328 1.08585,1.83064 z" id="path5461" inkscape:connector-curvature="0" sodipodi:nodetypes="aaaaaaa"/>
  </g>
</svg>
