<svg width="100" height="100" viewBox="0 0 32 32" fill="none" xmlns="http://www.w3.org/2000/svg">
<rect width="32" height="32" rx="7" fill="#232323"/>
<path d="M24.5622 26.1123H14.1118V27.1151H24.5622V26.1123Z" fill="#B0D944"/>
<path d="M24.5624 26.5107H7.4375V27.7184H24.5624V26.5107Z" fill="#B0D944"/>
<path d="M24.5622 24.293H14.1118V25.2957H24.5622V24.293Z" fill="#B0D944"/>
<path d="M24.5624 24.6924H7.4375V25.9H24.5624V24.6924Z" fill="#B0D944"/>
<path d="M24.5622 22.4736H14.1118V23.4764H24.5622V22.4736Z" fill="#B0D944"/>
<path d="M24.5624 22.8721H7.4375V24.0797H24.5624V22.8721Z" fill="#B0D944"/>
<path d="M24.5622 20.6543H14.1118V21.6571H24.5622V20.6543Z" fill="#B0D944"/>
<path d="M24.5624 21.0527H7.4375V22.2604H24.5624V21.0527Z" fill="#B0D944"/>
<path d="M24.5622 18.8359H14.1118V19.8387H24.5622V18.8359Z" fill="#B0D944"/>
<path d="M24.5624 19.2354H7.4375V20.443H24.5624V19.2354Z" fill="#B0D944"/>
<path d="M24.5622 17.0156H14.1118V18.0184H24.5622V17.0156Z" fill="#B0D944"/>
<path d="M24.5624 17.415H7.4375V18.6227H24.5624V17.415Z" fill="#B0D944"/>
<path d="M24.5622 15.1963H14.1118V16.1991H24.5622V15.1963Z" fill="#B0D944"/>
<path d="M24.5624 15.5957H7.4375V16.8034H24.5624V15.5957Z" fill="#B0D944"/>
<path d="M12.3418 13.7773H8.56885V14.985H12.3418V13.7773Z" fill="#B0D944"/>
<path d="M23.2035 13.3779H20.843V14.3807H23.2035V13.3779Z" fill="#B0D944"/>
<path d="M12.34 13.3779H9.97949V14.3807H12.34V13.3779Z" fill="#B0D944"/>
<path d="M23.2037 13.7773H19.4307V14.985H23.2037V13.7773Z" fill="#B0D944"/>
<path d="M12.3418 11.957H8.56885V13.1647H12.3418V11.957Z" fill="#B0D944"/>
<path d="M23.2035 11.5586H20.843V12.5614H23.2035V11.5586Z" fill="#B0D944"/>
<path d="M12.34 11.5586H9.97949V12.5614H12.34V11.5586Z" fill="#B0D944"/>
<path d="M23.2037 11.957H19.4307V13.1647H23.2037V11.957Z" fill="#B0D944"/>
<path d="M12.3418 10.1377H8.56885V11.3453H12.3418V10.1377Z" fill="#B0D944"/>
<path d="M23.2035 9.73926H20.843V10.742H23.2035V9.73926Z" fill="#B0D944"/>
<path d="M12.34 9.73926H9.97949V10.742H12.34V9.73926Z" fill="#B0D944"/>
<path d="M23.2037 10.1377H19.4307V11.3453H23.2037V10.1377Z" fill="#B0D944"/>
<path d="M13.0848 8.31934H9.31177V9.52698H13.0848V8.31934Z" fill="#B0D944"/>
<path d="M22.5358 7.91992H20.1753V8.92269H22.5358V7.91992Z" fill="#B0D944"/>
<path d="M13.0836 7.91992H10.7231V8.92269H13.0836V7.91992Z" fill="#B0D944"/>
<path d="M22.535 8.31934H18.762V9.52698H22.535V8.31934Z" fill="#B0D944"/>
<path d="M21.1316 6.10059H14.0142V7.10335H21.1316V6.10059Z" fill="#B0D944"/>
<path d="M21.1332 6.5H10.7231V7.70765H21.1332V6.5Z" fill="#B0D944"/>
<path d="M19.6221 4.28125H14.4077V5.28402H19.6221V4.28125Z" fill="#B0D944"/>
<path d="M19.6221 4.68066H11.9419V5.88831H19.6221V4.68066Z" fill="#B0D944"/>
</svg>